{
  "accessors": [
    {
      "bufferView": 2,
      "componentType": 5126,
      "count": 4295,
      "max": [
        1.1883374452590942,
        1.5726522207260132,
        1.1954551935195923
      ],
      "min": [
        -1.2025736570358276,
        -0.9775822162628174,
        -1.19545578956604
      ],
      "type": "VEC3"
    },
    {
      "bufferView": 2,
      "byteOffset": 51540,
      "componentType": 5126,
      "count": 4295,
      "max": [
        0.999667763710022,
        0.9684573411941528,
        0.999667763710022
      ],
      "min": [
        -0.9996677041053772,
        -0.9828221797943115,
        -0.999667763710022
      ],
      "type": "VEC3"
    },
    {
      "bufferView": 1,
      "componentType": 5126,
      "count": 4295,
      "max": [
        0.9160467386245728,
        0.9986264109611511
      ],
      "min": [
        0.0013467564713209867,
        0.0013762842863798141
      ],
      "type": "VEC2"
    },
    {
      "bufferView": 0,
      "componentType": 5125,
      "count": 22656,
      "type": "SCALAR"
    },
    {
      "bufferView": 2,
      "byteOffset": 103080,
      "componentType": 5126,
      "count": 1395,
      "max": [
        1.5912081003189087,
        13.3731050491333,
        5.270709991455078
      ],
      "min": [
        -0.3073832392692566,
        4.3308329582214355,
        3.141955852508545
      ],
      "type": "VEC3"
    },
    {
      "bufferView": 2,
      "byteOffset": 119820,
      "componentType": 5126,
      "count": 1395,
      "max": [
        0.9997691512107849,
        0.9999972581863403,
        0.999998927116394
      ],
      "min": [
        -0.9999359846115112,
        -1.0,
        -0.9998740553855896
      ],
      "type": "VEC3"
    },
    {
      "bufferView": 1,
      "byteOffset": 34360,
      "componentType": 5126,
      "count": 1395,
      "max": [
        0.8750001192092896,
        1.0000001192092896
      ],
      "min": [
        0.125,
        0.0
      ],
      "type": "VEC2"
    },
    {
      "bufferView": 0,
      "byteOffset": 90624,
      "componentType": 5125,
      "count": 6672,
      "type": "SCALAR"
    },
    {
      "bufferView": 2,
      "byteOffset": 136560,
      "componentType": 5126,
      "count": 1391,
      "max": [
        1.5995250940322876,
        21.166805267333984,
        4.849753379821777
      ],
      "min": [
        -0.2990662157535553,
        12.124529838562012,
        2.7209982872009277
      ],
      "type": "VEC3"
    },
    {
      "bufferView": 2,
      "byteOffset": 153252,
      "componentType": 5126,
      "count": 1391,
      "max": [
        0.9997690320014954,
        0.9999972581863403,
        0.999998927116394
      ],
      "min": [
        -0.9999359846115112,
        -1.0,
        -0.9998739957809448
      ],
      "type": "VEC3"
    },
    {
      "bufferView": 1,
      "byteOffset": 45520,
      "componentType": 5126,
      "count": 1391,
      "max": [
        0.8750001192092896,
        1.0000001192092896
      ],
      "min": [
        0.125,
        0.0
      ],
      "type": "VEC2"
    },
    {
      "bufferView": 0,
      "byteOffset": 117312,
      "componentType": 5125,
      "count": 6672,
      "type": "SCALAR"
    },
    {
      "bufferView": 2,
      "byteOffset": 169944,
      "componentType": 5126,
      "count": 5068,
      "max": [
        1.0730664730072021,
        1.2575072050094604,
        1.8647172451019287
      ],
      "min": [
        -0.7887842655181885,
        -0.4871760308742523,
        -0.8539167642593384
      ],
      "type": "VEC3"
    },
    {
      "bufferView": 2,
      "byteOffset": 230760,
      "componentType": 5126,
      "count": 5068,
      "max": [
        0.9975672364234924,
        0.9999713897705078,
        0.9951997399330139
      ],
      "min": [
        -0.9972397089004517,
        -0.9999898672103882,
        -0.9977250099182129
      ],
      "type": "VEC3"
    },
    {
      "bufferView": 1,
      "byteOffset": 56648,
      "componentType": 5126,
      "count": 5068,
      "max": [
        0.5188813805580139,
        0.8750001192092896
      ],
      "min": [
        0.3749999403953552,
        0.375
      ],
      "type": "VEC2"
    },
    {
      "bufferView": 0,
      "byteOffset": 144000,
      "componentType": 5125,
      "count": 22848,
      "type": "SCALAR"
    },
    {
      "bufferView": 2,
      "byteOffset": 291576,
      "componentType": 5126,
      "count": 6559,
      "max": [
        1.1314572095870972,
        1.888881802558899,
        0.8241039514541626
      ],
      "min": [
        -0.8459250926971436,
        -0.39870497584342957,
        -0.9271807074546814
      ],
      "type": "VEC3"
    },
    {
      "bufferView": 2,
      "byteOffset": 370284,
      "componentType": 5126,
      "count": 6559,
      "max": [
        0.9996141791343689,
        0.9999991655349731,
        0.9999417662620544
      ],
      "min": [
        -0.9996726512908936,
        -0.9997066855430603,
        -0.9999372959136963
      ],
      "type": "VEC3"
    },
    {
      "bufferView": 1,
      "byteOffset": 97192,
      "componentType": 5126,
      "count": 6559,
      "max": [
        0.75,
        0.75
      ],
      "min": [
        0.3786635398864746,
        0.43183019757270813
      ],
      "type": "VEC2"
    },
    {
      "bufferView": 0,
      "byteOffset": 235392,
      "componentType": 5125,
      "count": 26880,
      "type": "SCALAR"
    },
    {
      "bufferView": 2,
      "byteOffset": 448992,
      "componentType": 5126,
      "count": 2666,
      "max": [
        0.9266425371170044,
        1.8562533855438232,
        1.0575135946273804
      ],
      "min": [
        -0.6113578677177429,
        -0.3492899537086487,
        -0.8838441371917725
      ],
      "type": "VEC3"
    },
    {
      "bufferView": 2,
      "byteOffset": 480984,
      "componentType": 5126,
      "count": 2666,
      "max": [
        0.9888367652893066,
        0.998684287071228,
        0.9999985098838806
      ],
      "min": [
        -0.9874128699302673,
        -0.9967274069786072,
        -0.999762237071991
      ],
      "type": "VEC3"
    },
    {
      "bufferView": 1,
      "byteOffset": 149664,
      "componentType": 5126,
      "count": 2666,
      "max": [
        0.8755775094032288,
        0.8759698867797852
      ],
      "min": [
        0.37908679246902466,
        0.37357497215270996
      ],
      "type": "VEC2"
    },
    {
      "bufferView": 0,
      "byteOffset": 342912,
      "componentType": 5125,
      "count": 12480,
      "type": "SCALAR"
    },
    {
      "bufferView": 2,
      "byteOffset": 512976,
      "componentType": 5126,
      "count": 6670,
      "max": [
        1.1036771535873413,
        1.6506632566452026,
        1.05615234375
      ],
      "min": [
        -1.0628538131713867,
        -0.651648223400116,
        -0.9697216749191284
      ],
      "type": "VEC3"
    },
    {
      "bufferView": 2,
      "byteOffset": 593016,
      "componentType": 5126,
      "count": 6670,
      "max": [
        0.9997746348381042,
        0.9992956519126892,
        0.9999653697013855
      ],
      "min": [
        -0.9997118711471558,
        -1.0,
        -0.9999604225158691
      ],
      "type": "VEC3"
    },
    {
      "bufferView": 1,
      "byteOffset": 170992,
      "componentType": 5126,
      "count": 6670,
      "max": [
        0.6262251138687134,
        1.0000001192092896
      ],
      "min": [
        0.125,
        -0.018097124993801117
      ],
      "type": "VEC2"
    },
    {
      "bufferView": 0,
      "byteOffset": 392832,
      "componentType": 5125,
      "count": 32832,
      "type": "SCALAR"
    }
  ],
  "asset": {
    "extras": {
      "author": "BunnyGame (https://sketchfab.com/bunnyGame)",
      "license": "CC-BY-4.0 (http://creativecommons.org/licenses/by/4.0/)",
      "source": "https://sketchfab.com/3d-models/duck-ice-cream-9d5d1e039411491980ba073b2e3d4173",
      "title": "Duck Ice Cream"
    },
    "generator": "Sketchfab-14.87.0",
    "version": "2.0"
  },
  "bufferViews": [
    {
      "buffer": 0,
      "byteLength": 524160,
      "name": "floatBufferViews",
      "target": 34963
    },
    {
      "buffer": 0,
      "byteLength": 224352,
      "byteOffset": 524160,
      "byteStride": 8,
      "name": "floatBufferViews",
      "target": 34962
    },
    {
      "buffer": 0,
      "byteLength": 673056,
      "byteOffset": 748512,
      "byteStride": 12,
      "name": "floatBufferViews",
      "target": 34962
    }
  ],
  "buffers": [
    {
      "byteLength": 1421568,
      "uri": "scene.bin"
    }
  ],
  "images": [
    {
      "uri": "textures/Material.004_baseColor.png"
    }
  ],
  "materials": [
    {
      "doubleSided": true,
      "name": "Material.004",
      "pbrMetallicRoughness": {
        "baseColorTexture": {
          "index": 0
        },
        "metallicFactor": 0.0,
        "roughnessFactor": 0.692661
      }
    },
    {
      "doubleSided": true,
      "name": "Material.008",
      "pbrMetallicRoughness": {
        "baseColorFactor": [
          0.8,
          0.225687,
          0.0364815,
          1.0
        ],
        "metallicFactor": 0.0,
        "roughnessFactor": 0.518349
      }
    },
    {
      "doubleSided": true,
      "name": "Material.009",
      "pbrMetallicRoughness": {
        "baseColorFactor": [
          0.104132,
          0.701914,
          0.8,
          1.0
        ],
        "metallicFactor": 0.0,
        "roughnessFactor": 0.5
      }
    },
    {
      "doubleSided": true,
      "name": "Material.010",
      "pbrMetallicRoughness": {
        "baseColorFactor": [
          0.8,
          0.0595367,
          0.036437,
          1.0
        ],
        "metallicFactor": 0.0,
        "roughnessFactor": 0.582569
      }
    },
    {
      "doubleSided": true,
      "name": "Material.011",
      "pbrMetallicRoughness": {
        "baseColorFactor": [
          0.8,
          0.8,
          0.8,
          1.0
        ],
        "metallicFactor": 0.0,
        "roughnessFactor": 0.5
      }
    },
    {
      "doubleSided": true,
      "name": "Material.007",
      "pbrMetallicRoughness": {
        "baseColorFactor": [
          1.0,
          0.909844,
          0.944113,
          1.0
        ],
        "metallicFactor": 0.0,
        "roughnessFactor": 0.288991
      }
    }
  ],
  "meshes": [
    {
      "name": "Object_0",
      "primitives": [
        {
          "attributes": {
            "NORMAL": 1,
            "POSITION": 0,
            "TEXCOORD_0": 2
          },
          "indices": 3,
          "material": 0,
          "mode": 4
        }
      ]
    },
    {
      "name": "Object_1",
      "primitives": [
        {
          "attributes": {
            "NORMAL": 5,
            "POSITION": 4,
            "TEXCOORD_0": 6
          },
          "indices": 7,
          "material": 1,
          "mode": 4
        }
      ]
    },
    {
      "name": "Object_2",
      "primitives": [
        {
          "attributes": {
            "NORMAL": 9,
            "POSITION": 8,
            "TEXCOORD_0": 10
          },
          "indices": 11,
          "material": 1,
          "mode": 4
        }
      ]
    },
    {
      "name": "Object_3",
      "primitives": [
        {
          "attributes": {
            "NORMAL": 13,
            "POSITION": 12,
            "TEXCOORD_0": 14
          },
          "indices": 15,
          "material": 2,
          "mode": 4
        }
      ]
    },
    {
      "name": "Object_4",
      "primitives": [
        {
          "attributes": {
            "NORMAL": 17,
            "POSITION": 16,
            "TEXCOORD_0": 18
          },
          "indices": 19,
          "material": 3,
          "mode": 4
        }
      ]
    },
    {
      "name": "Object_5",
      "primitives": [
        {
          "attributes": {
            "NORMAL": 21,
            "POSITION": 20,
            "TEXCOORD_0": 22
          },
          "indices": 23,
          "material": 4,
          "mode": 4
        }
      ]
    },
    {
      "name": "Object_6",
      "primitives": [
        {
          "attributes": {
            "NORMAL": 25,
            "POSITION": 24,
            "TEXCOORD_0": 26
          },
          "indices": 27,
          "material": 5,
          "mode": 4
        }
      ]
    }
  ],
  "nodes": [
    {
      "children": [
        1
      ],
      "matrix": [
        1.0,
        0.0,
        0.0,
        0.0,
        0.0,
        2.220446049250313e-16,
        -1.0,
        0.0,
        0.0,
        1.0,
        2.220446049250313e-16,
        0.0,
        0.0,
        0.0,
        0.0,
        1.0
      ],
      "name": "Sketchfab_model"
    },
    {
      "children": [
        2
      ],
      "name": "root"
    },
    {
      "children": [
        3,
        5,
        7,
        9,
        13
      ],
      "matrix": [
        1.0,
        0.0,
        0.0,
        0.0,
        0.0,
        2.220446049250313e-16,
        1.0,
        0.0,
        0.0,
        -1.0,
        2.220446049250313e-16,
        0.0,
        0.0,
        0.0,
        0.0,
        1.0
      ],
      "name": "GLTF_SceneRootNode"
    },
    {
      "children": [
        4
      ],
      "matrix": [
        0.8565179109573364,
        0.0,
        0.0,
        0.0,
        0.0,
        0.8565179109573364,
        0.0,
        0.0,
        0.0,
        0.0,
        0.8565179109573364,
        0.0,
        0.01644439436495304,
        -2.0866191387176514,
        0.02253490686416626,
        1.0
      ],
      "name": "cone_6"
    },
    {
      "mesh": 0,
      "name": "Object_4"
    },
    {
      "children": [
        6
      ],
      "matrix": [
        0.2845109102570032,
        -0.01773098989222002,
        -0.16878890636675092,
        0.0,
        0.01575214031325599,
        0.03326664267024311,
        0.02305723378306664,
        0.0,
        0.11986735626225677,
        -0.21225328029489762,
        0.22434549890083189,
        0.0,
        0.0,
        0.0,
        0.0,
        1.0
      ],
      "name": "feet_7"
    },
    {
      "mesh": 1,
      "name": "Object_6"
    },
    {
      "children": [
        8
      ],
      "matrix": [
        0.24117362411323837,
        -0.1706498052286946,
        0.1498815131288891,
        0.0,
        -0.008302987708631847,
        0.02090075297561947,
        0.03715715797645961,
        0.0,
        -0.21811694320927846,
        -0.23497717902369858,
        0.08343419798509139,
        0.0,
        0.0,
        0.0,
        0.0,
        1.0
      ],
      "name": "feet.001_8"
    },
    {
      "mesh": 2,
      "name": "Object_8"
    },
    {
      "children": [
        10,
        11,
        12
      ],
      "matrix": [
        -0.9657259662821905,
        -0.12720505837652554,
        0.6197721760507958,
        0.0,
        -0.20477258755525762,
        0.40038803633857034,
        -0.23689805241783224,
        0.0,
        -0.4029427197932175,
        -0.6574008889707431,
        -0.7627915291380158,
        0.0,
        -0.16154120862483978,
        0.0490177646279335,
        -0.2512466311454773,
        1.0
      ],
      "name": "hat_9"
    },
    {
      "mesh": 3,
      "name": "Object_10"
    },
    {
      "mesh": 4,
      "name": "Object_11"
    },
    {
      "mesh": 5,
      "name": "Object_12"
    },
    {
      "children": [
        14
      ],
      "matrix": [
        1.044790506362915,
        0.0,
        0.0,
        0.0,
        0.0,
        0.6898964047431946,
        0.0,
        0.0,
        0.0,
        0.0,
        1.044790506362915,
        0.0,
        0.0,
        -0.34179747104644775,
        0.0,
        1.0
      ],
      "name": "hip_10"
    },
    {
      "mesh": 6,
      "name": "Object_14"
    }
  ],
  "samplers": [
    {
      "magFilter": 9729,
      "minFilter": 9987,
      "wrapS": 10497,
      "wrapT": 10497
    }
  ],
  "scene": 0,
  "scenes": [
    {
      "name": "Sketchfab_Scene",
      "nodes": [
        0
      ]
    }
  ],
  "textures": [
    {
      "sampler": 0,
      "source": 0
    }
  ]
}
