<svg width="88" height="16" viewBox="0 0 88 16" fill="none" xmlns="http://www.w3.org/2000/svg">
<path d="M11.0391 5.50464C10.6973 3.67847 9.18359 2.66284 7.38672 2.67261C4.94531 2.66284 3.13867 4.53784 3.12891 7.96558C3.13867 11.4128 4.95508 13.2683 7.38672 13.2585C9.16406 13.2683 10.668 12.2722 11.0391 10.4656L13.207 10.4851C12.7578 13.2781 10.4824 15.2312 7.36719 15.2312C3.68555 15.2312 1 12.4871 1 7.96558C1 3.44409 3.70508 0.699951 7.36719 0.699951C10.3555 0.699951 12.7285 2.46753 13.207 5.50464H11.0391Z" fill="black"/>
<path d="M16.6445 15.0359H14.3594L19.4375 0.895264H21.918L27.0156 15.0359H24.7305L23.4414 11.3054H17.9336L16.6445 15.0359ZM18.5488 9.50854H22.8164L20.7266 3.47339H20.6289L18.5488 9.50854Z" fill="black"/>
<path d="M28.8125 15.0359V0.895264H33.8516C37.1426 0.895264 38.7539 2.86792 38.7539 5.48511C38.7539 8.09253 37.1328 10.075 33.8516 10.075H30.9609V15.0359H28.8125ZM30.9609 8.23901H33.6367C35.7168 8.24878 36.5859 7.0769 36.5859 5.48511C36.5859 3.88354 35.7168 2.74097 33.6367 2.7312H30.9609V8.23901Z" fill="black"/>
<path d="M48.7148 4.62573C48.5781 3.30737 47.4258 2.55542 45.8047 2.55542C44.0762 2.55542 42.9824 3.44409 42.9727 4.64526C42.9727 5.98315 44.4277 6.5105 45.5508 6.77417L46.918 7.14526C48.7246 7.58472 50.9902 8.57104 51 11.1296C50.9902 13.5222 49.0859 15.2703 45.7461 15.2703C42.582 15.2703 40.5898 13.6882 40.4531 11.1101H42.6016C42.7285 12.6531 44.0957 13.3855 45.7461 13.3953C47.5527 13.3855 48.8613 12.4773 48.8711 11.0906C48.8613 9.86011 47.6895 9.36206 46.1953 8.96167L44.5156 8.51245C42.2402 7.88745 40.834 6.73511 40.8242 4.76245C40.834 2.32104 43.002 0.699951 45.8633 0.699951C48.7344 0.699951 50.7363 2.34058 50.8047 4.62573H48.7148Z" fill="black"/>
<path d="M62.3867 0.895264H64.5352V10.1921C64.5449 13.1609 62.3086 15.2703 58.9297 15.2703C55.5215 15.2703 53.2949 13.1609 53.3047 10.1921V0.895264H55.4531V10.0164C55.4434 11.9304 56.7812 13.3074 58.9297 13.3171C61.0684 13.3074 62.3867 11.9304 62.3867 10.0164V0.895264Z" fill="black"/>
<path d="M67.4258 15.0359V0.895264H69.5742V13.1804H75.9609V15.0359H67.4258Z" fill="black"/>
<path d="M78.168 15.0359V0.895264H87.0352V2.75073H80.3164V7.02808H86.5664V8.86401H80.3164V13.1804H87.1133V15.0359H78.168Z" fill="black"/>
</svg>
