<svg width="350" height="350" viewBox="0 0 350 350" fill="none" xmlns="http://www.w3.org/2000/svg">
<path fill-rule="evenodd" clip-rule="evenodd" d="M250 0H50V50H0V100H50V150H0V250H50V300H100V350H250V300H350V250H300V150H350V100H300V50H250V0Z" fill="black"/>
<path d="M127.953 169.688H130.859L134 177.359H134.125L137.266 169.688H140.172V181H137.891V173.594H137.797L134.844 180.953H133.281L130.328 173.562H130.234V181H127.953V169.688ZM143.969 181H141.438L145.359 169.688H148.375L152.281 181H149.766L148.914 178.391H144.82L143.969 181ZM145.414 176.562H148.32L146.906 172.234H146.828L145.414 176.562ZM155.906 169.688V181H153.562V169.688H155.906ZM167.25 169.688V181H165.219L160.25 173.812H160.156V181H157.812V169.688H159.875L164.812 176.875H164.922V169.688H167.25ZM178.984 172.922C178.891 172.023 178.18 171.5 177.031 171.5C175.844 171.5 175.18 172.047 175.172 172.797C175.164 173.617 176.008 173.984 176.984 174.203L178 174.453C179.938 174.898 181.383 175.883 181.391 177.766C181.383 179.836 179.773 181.164 177.016 181.156C174.281 181.164 172.539 179.898 172.469 177.469H174.75C174.828 178.609 175.734 179.188 176.984 179.188C178.219 179.188 179.016 178.609 179.016 177.766C179.016 176.992 178.312 176.633 177.078 176.328L175.844 176.031C173.938 175.562 172.766 174.609 172.766 172.953C172.758 170.898 174.57 169.531 177.047 169.531C179.555 169.531 181.203 170.922 181.234 172.922H178.984ZM182.484 171.625V169.688H191.75V171.625H188.281V181H185.953V171.625H182.484ZM193.703 181H191.172L195.094 169.688H198.109L202.016 181H199.5L198.648 178.391H194.555L193.703 181ZM195.148 176.562H198.055L196.641 172.234H196.562L195.148 176.562ZM210.281 173.328C209.961 172.266 209.109 171.617 207.875 171.609C206.125 171.617 204.938 172.953 204.938 175.328C204.938 177.719 206.086 179.07 207.891 179.078C209.508 179.07 210.469 178.156 210.5 176.734H208.047V174.969H212.766V176.375C212.766 179.344 210.727 181.156 207.875 181.156C204.703 181.156 202.547 178.938 202.547 175.359C202.547 171.688 204.844 169.531 207.828 169.531C210.383 169.531 212.344 171.102 212.656 173.328H210.281ZM214.484 181V169.688H222.078V171.625H216.828V174.375H221.688V176.312H216.828V179.062H222.094V181H214.484Z" fill="white"/>
</svg>
