<svg width="50" height="150" viewBox="0 0 50 150" fill="none" xmlns="http://www.w3.org/2000/svg">
<rect width="50" height="150" fill="#BFE4AA"/>
<path d="M21.625 102.484L19.6875 102.484L19.6875 93.2187L21.625 93.2187L21.625 96.6875L31 96.6875L31 99.0156L21.625 99.0156L21.625 102.484ZM25.3437 81.9062C29.0391 81.9062 31.1562 84.1953 31.1562 87.1875C31.1562 90.2031 29.0234 92.4844 25.3437 92.4844C21.6484 92.4844 19.5312 90.2031 19.5312 87.1875C19.5312 84.1953 21.6484 81.9062 25.3437 81.9062ZM25.3437 90.0937C27.7578 90.0937 29.0703 88.9453 29.0781 87.1875C29.0703 85.4453 27.7578 84.2891 25.3437 84.2969C22.9219 84.2891 21.6172 85.4453 21.6094 87.1875C21.6172 88.9453 22.9219 90.0937 25.3437 90.0937ZM19.6875 77.875L31 77.875L31 80.2187L19.6875 80.2187L19.6875 77.875ZM31 75.9687L19.6875 75.9687L19.6875 73.625L29.0625 73.625L29.0625 68.75L31 68.75L31 75.9687ZM31 67.2344L19.6875 67.2344L19.6875 59.6406L21.625 59.6406L21.625 64.8906L24.375 64.8906L24.375 60.0312L26.3125 60.0312L26.3125 64.8906L29.0625 64.8906L29.0625 59.625L31 59.625L31 67.2344ZM21.625 58.25L19.6875 58.25L19.6875 48.9844L21.625 48.9844L21.625 52.4531L31 52.4531L31 54.7812L21.625 54.7812L21.625 58.25Z" fill="black"/>
</svg>
