<svg width="350" height="50" viewBox="0 0 350 50" fill="none" xmlns="http://www.w3.org/2000/svg">
<circle cx="25" cy="25" r="25" fill="#E75A33"/>
<circle cx="75" cy="25" r="25" fill="#E75A33"/>
<circle cx="125" cy="25" r="25" fill="#E75A33"/>
<circle cx="175" cy="25" r="25" fill="#E75A33"/>
<circle cx="225" cy="25" r="25" fill="#E75A33"/>
<circle cx="275" cy="25" r="25" fill="#E75A33"/>
<circle cx="325" cy="25" r="25" fill="#E75A33"/>
<path d="M92.1406 31V19.6875H99.5938V21.625H94.4844V24.375H99.1094V26.3125H94.4844V31H92.1406ZM111.5 25.3438C111.5 29.0391 109.211 31.1562 106.219 31.1562C103.203 31.1562 100.922 29.0234 100.922 25.3438C100.922 21.6484 103.203 19.5312 106.219 19.5312C109.211 19.5312 111.5 21.6484 111.5 25.3438ZM103.312 25.3438C103.312 27.7578 104.461 29.0703 106.219 29.0781C107.961 29.0703 109.117 27.7578 109.109 25.3438C109.117 22.9219 107.961 21.6172 106.219 21.6094C104.461 21.6172 103.312 22.9219 103.312 25.3438ZM123.547 25.3438C123.547 29.0391 121.258 31.1562 118.266 31.1562C115.25 31.1562 112.969 29.0234 112.969 25.3438C112.969 21.6484 115.25 19.5312 118.266 19.5312C121.258 19.5312 123.547 21.6484 123.547 25.3438ZM115.359 25.3438C115.359 27.7578 116.508 29.0703 118.266 29.0781C120.008 29.0703 121.164 27.7578 121.156 25.3438C121.164 22.9219 120.008 21.6172 118.266 21.6094C116.508 21.6172 115.359 22.9219 115.359 25.3438ZM129.219 31H125.234V19.6875H129.266C132.672 19.6875 134.758 21.8047 134.75 25.3281C134.758 28.8672 132.672 31 129.219 31ZM127.578 28.9844H129.125C131.281 28.9844 132.406 27.8672 132.406 25.3281C132.406 22.8125 131.281 21.7031 129.141 21.7031H127.578V28.9844ZM142.031 31H139.5L143.422 19.6875H146.438L150.344 31H147.828L146.977 28.3906H142.883L142.031 31ZM143.477 26.5625H146.383L144.969 22.2344H144.891L143.477 26.5625ZM161.062 19.6875V31H159.031L154.062 23.8125H153.969V31H151.625V19.6875H153.688L158.625 26.875H158.734V19.6875H161.062ZM166.953 31H162.969V19.6875H167C170.406 19.6875 172.492 21.8047 172.484 25.3281C172.492 28.8672 170.406 31 166.953 31ZM165.312 28.9844H166.859C169.016 28.9844 170.141 27.8672 170.141 25.3281C170.141 22.8125 169.016 21.7031 166.875 21.7031H165.312V28.9844ZM177.875 31V19.6875L182.375 19.6875C184.867 19.6875 186.133 20.8906 186.125 22.5937C186.133 23.9219 185.258 24.7578 184.094 25.0156V25.125C185.367 25.1875 186.57 26.2031 186.578 27.875C186.57 29.6719 185.227 31 182.672 31H177.875ZM180.219 29.0625H182.203C183.562 29.0703 184.148 28.5078 184.141 27.6562C184.148 26.7031 183.422 26.0312 182.266 26.0312H180.219V29.0625ZM180.219 24.4219H182.031C183.016 24.4297 183.758 23.875 183.75 22.9687C183.758 22.1484 183.148 21.5937 182.078 21.5937H180.219V24.4219ZM188.062 31V19.6875H195.656V21.625H190.406V24.375H195.266V26.3125H190.406V29.0625H195.672V31H188.062ZM199.469 19.6875L202.219 28.3125H202.328L205.094 19.6875H207.688L203.781 31H200.766L196.844 19.6875H199.469ZM208.969 31V19.6875H216.562V21.625H211.312V24.375H216.172V26.3125H211.312V29.0625H216.578V31H208.969ZM218.391 31V19.6875H222.828C225.398 19.6875 226.875 21.1328 226.875 23.375C226.875 24.9219 226.164 26.0469 224.875 26.6016L227.281 31H224.688L222.523 26.9844H220.734V31H218.391ZM220.734 25.0781H222.391C223.781 25.0781 224.461 24.5078 224.453 23.375C224.461 22.2344 223.781 21.6172 222.391 21.6094H220.734V25.0781ZM236.016 23.3281C235.695 22.2656 234.844 21.6172 233.609 21.6094C231.859 21.6172 230.672 22.9531 230.672 25.3281C230.672 27.7187 231.82 29.0703 233.625 29.0781C235.242 29.0703 236.203 28.1562 236.234 26.7344H233.781V24.9687H238.5V26.375C238.5 29.3437 236.461 31.1562 233.609 31.1562C230.438 31.1562 228.281 28.9375 228.281 25.3594C228.281 21.6875 230.578 19.5312 233.562 19.5312C236.117 19.5312 238.078 21.1016 238.391 23.3281H236.016ZM241.75 31H239.219L243.141 19.6875H246.156L250.062 31H247.547L246.695 28.3906H242.602L241.75 31ZM243.195 26.5625H246.102L244.688 22.2344H244.609L243.195 26.5625ZM251.344 31V19.6875H258.938V21.625H253.688V24.375H258.547V26.3125H253.688V29.0625H258.953V31H251.344Z" fill="black"/>
</svg>
