<svg width="250" height="200" viewBox="0 0 250 200" fill="none" xmlns="http://www.w3.org/2000/svg">
<path fill-rule="evenodd" clip-rule="evenodd" d="M250 0H50V50H0V100H50V150H0V200H200V150H250V100H200V50H250V0Z" fill="white"/>
<path d="M102.758 83.6875H105.664L108.805 91.3594H108.93L112.07 83.6875H114.977V95H112.695V87.5938H112.602L109.648 94.9531H108.086L105.133 87.5625H105.039V95H102.758V83.6875ZM116.883 95V83.6875H124.477V85.625H119.227V88.375H124.086V90.3125H119.227V93.0625H124.492V95H116.883ZM133.82 87.3281C133.5 86.2656 132.648 85.6172 131.414 85.6094C129.664 85.6172 128.477 86.9531 128.477 89.3281C128.477 91.7188 129.625 93.0703 131.43 93.0781C133.047 93.0703 134.008 92.1562 134.039 90.7344H131.586V88.9688H136.305V90.375C136.305 93.3438 134.266 95.1562 131.414 95.1562C128.242 95.1562 126.086 92.9375 126.086 89.3594C126.086 85.6875 128.383 83.5312 131.367 83.5312C133.922 83.5312 135.883 85.1016 136.195 87.3281H133.82ZM139.555 95H137.023L140.945 83.6875H143.961L147.867 95H145.352L144.5 92.3906H140.406L139.555 95ZM141 90.5625H143.906L142.492 86.2344H142.414L141 90.5625ZM76.25 117V105.688H80.6875C83.2578 105.688 84.7344 107.273 84.7344 109.5C84.7344 111.758 83.2344 113.312 80.625 113.312H78.5938V117H76.25ZM78.5938 111.422H80.25C81.6406 111.422 82.3203 110.641 82.3125 109.5C82.3203 108.375 81.6406 107.617 80.25 107.609H78.5938V111.422ZM86.2188 117V105.688H88.5625V115.062H93.4375V117H86.2188ZM97.1406 117H94.6094L98.5312 105.688H101.547L105.453 117H102.938L102.086 114.391H97.9922L97.1406 117ZM98.5859 112.562H101.492L100.078 108.234H100L98.5859 112.562ZM116.172 105.688V117H114.141L109.172 109.812H109.078V117H106.734V105.688H108.797L113.734 112.875H113.844V105.688H116.172ZM117.641 107.625V105.688H126.906V107.625H123.438V117H121.109V107.625H117.641ZM138.188 108.922C138.094 108.023 137.383 107.5 136.234 107.5C135.047 107.5 134.383 108.047 134.375 108.797C134.367 109.617 135.211 109.984 136.188 110.203L137.203 110.453C139.141 110.898 140.586 111.883 140.594 113.766C140.586 115.836 138.977 117.164 136.219 117.156C133.484 117.164 131.742 115.898 131.672 113.469H133.953C134.031 114.609 134.938 115.188 136.188 115.188C137.422 115.188 138.219 114.609 138.219 113.766C138.219 112.992 137.516 112.633 136.281 112.328L135.047 112.031C133.141 111.562 131.969 110.609 131.969 108.953C131.961 106.898 133.773 105.531 136.25 105.531C138.758 105.531 140.406 106.922 140.438 108.922H138.188ZM142.125 117V105.688H144.469V110.375H149.375V105.688H151.734V117H149.375V112.312H144.469V117H142.125ZM164 111.344C164 115.039 161.711 117.156 158.719 117.156C155.703 117.156 153.422 115.023 153.422 111.344C153.422 107.648 155.703 105.531 158.719 105.531C161.711 105.531 164 107.648 164 111.344ZM155.812 111.344C155.812 113.758 156.961 115.07 158.719 115.078C160.461 115.07 161.617 113.758 161.609 111.344C161.617 108.922 160.461 107.617 158.719 107.609C156.961 107.617 155.812 108.922 155.812 111.344ZM165.688 117V105.688H170.125C172.695 105.688 174.172 107.273 174.172 109.5C174.172 111.758 172.672 113.312 170.062 113.312H168.031V117H165.688ZM168.031 111.422H169.688C171.078 111.422 171.758 110.641 171.75 109.5C171.758 108.375 171.078 107.617 169.688 107.609H168.031V111.422Z" fill="black"/>
</svg>
