<svg width="400" height="450" viewBox="0 0 400 450" fill="none" xmlns="http://www.w3.org/2000/svg">
<rect width="400" height="450" fill="#4F9DE4"/>
<rect width="100" height="50" fill="#A5CEFB"/>
<rect x="200" width="100" height="50" fill="#A5CEFB"/>
<rect x="100" y="50" width="100" height="50" fill="#A5CEFB"/>
<rect x="300" y="50" width="100" height="50" fill="#A5CEFB"/>
<rect y="100" width="100" height="50" fill="#A5CEFB"/>
<rect x="200" y="100" width="100" height="50" fill="#A5CEFB"/>
<rect x="100" y="150" width="100" height="50" fill="#A5CEFB"/>
<rect x="300" y="150" width="100" height="50" fill="#A5CEFB"/>
<rect y="200" width="100" height="50" fill="#A5CEFB"/>
<rect x="200" y="200" width="100" height="50" fill="#A5CEFB"/>
<rect x="100" y="250" width="100" height="50" fill="#A5CEFB"/>
<rect x="300" y="250" width="100" height="50" fill="#A5CEFB"/>
<rect y="300" width="100" height="50" fill="#A5CEFB"/>
<rect x="200" y="300" width="100" height="50" fill="#A5CEFB"/>
<rect x="100" y="350" width="100" height="50" fill="#A5CEFB"/>
<rect x="300" y="350" width="100" height="50" fill="#A5CEFB"/>
<rect y="400" width="100" height="50" fill="#A5CEFB"/>
<rect x="200" y="400" width="100" height="50" fill="#A5CEFB"/>
<path d="M151.25 231V219.688H155.688C158.258 219.688 159.734 221.273 159.734 223.5C159.734 225.758 158.234 227.312 155.625 227.312H153.594V231H151.25ZM153.594 225.422H155.25C156.641 225.422 157.32 224.641 157.312 223.5C157.32 222.375 156.641 221.617 155.25 221.609H153.594V225.422ZM161.219 231V219.688H163.562V229.062H168.438V231H161.219ZM172.141 231H169.609L173.531 219.688H176.547L180.453 231H177.938L177.086 228.391H172.992L172.141 231ZM173.586 226.562H176.492L175.078 222.234H175L173.586 226.562ZM191.172 219.688V231H189.141L184.172 223.812H184.078V231H181.734V219.688H183.797L188.734 226.875H188.844V219.688H191.172ZM192.641 221.625V219.688H201.906V221.625H198.438V231H196.109V221.625H192.641ZM213.188 222.922C213.094 222.023 212.383 221.5 211.234 221.5C210.047 221.5 209.383 222.047 209.375 222.797C209.367 223.617 210.211 223.984 211.188 224.203L212.203 224.453C214.141 224.898 215.586 225.883 215.594 227.766C215.586 229.836 213.977 231.164 211.219 231.156C208.484 231.164 206.742 229.898 206.672 227.469H208.953C209.031 228.609 209.938 229.188 211.188 229.188C212.422 229.188 213.219 228.609 213.219 227.766C213.219 226.992 212.516 226.633 211.281 226.328L210.047 226.031C208.141 225.562 206.969 224.609 206.969 222.953C206.961 220.898 208.773 219.531 211.25 219.531C213.758 219.531 215.406 220.922 215.438 222.922H213.188ZM217.125 231V219.688H219.469V224.375H224.375V219.688H226.734V231H224.375V226.312H219.469V231H217.125ZM239 225.344C239 229.039 236.711 231.156 233.719 231.156C230.703 231.156 228.422 229.023 228.422 225.344C228.422 221.648 230.703 219.531 233.719 219.531C236.711 219.531 239 221.648 239 225.344ZM230.812 225.344C230.812 227.758 231.961 229.07 233.719 229.078C235.461 229.07 236.617 227.758 236.609 225.344C236.617 222.922 235.461 221.617 233.719 221.609C231.961 221.617 230.812 222.922 230.812 225.344ZM240.688 231V219.688H245.125C247.695 219.688 249.172 221.273 249.172 223.5C249.172 225.758 247.672 227.312 245.062 227.312H243.031V231H240.688ZM243.031 225.422H244.688C246.078 225.422 246.758 224.641 246.75 223.5C246.758 222.375 246.078 221.617 244.688 221.609H243.031V225.422Z" fill="black"/>
</svg>
