<svg width="151" height="150" viewBox="0 0 151 150" fill="none" xmlns="http://www.w3.org/2000/svg">
<path fill-rule="evenodd" clip-rule="evenodd" d="M0 0H151V50H100V100H151V150H0V100V50V0Z" fill="#FAE373"/>
<path d="M20.3529 98.6943L28.3521 106.693L26.6948 108.351L18.6956 100.352L20.3529 98.6943ZM28.3742 90.6731L36.3733 98.6722L34.937 100.109L26.3412 98.5397L26.2749 98.6059L31.3573 103.688L29.7 105.346L21.7008 97.3464L23.1592 95.888L31.7329 97.479L31.8103 97.4017L26.7279 92.3193L28.3742 90.6731ZM37.7212 97.3243L29.7221 89.3252L34.9922 84.055L36.3623 85.425L32.7494 89.0379L34.6939 90.9825L37.9643 87.7121L39.3343 89.0821L36.0639 92.3525L39.3785 95.667L37.7212 97.3243ZM47.4108 79.6356C50.0238 82.2486 49.9022 85.3643 47.7864 87.4801C45.6541 89.6124 42.5329 89.7174 39.9309 87.1155C37.318 84.5025 37.434 81.3923 39.5663 79.2599C41.6821 77.1441 44.7978 77.0226 47.4108 79.6356ZM41.6214 85.425C43.3284 87.132 45.0685 87.248 46.317 86.0106C47.5434 84.7732 47.4329 83.0275 45.7204 81.326C44.0134 79.608 42.2732 79.503 41.0358 80.7294C39.7983 81.9779 39.9088 83.7125 41.6214 85.425ZM44.6045 74.4428L46.6595 72.3878L54.3051 75.5918L54.3935 75.5034L51.1894 67.8578L53.2444 65.8028L61.2436 73.802L59.6305 75.4151L54.3935 70.178L54.3272 70.2443L57.4429 77.5364L56.338 78.6412L49.0239 75.5034L48.9576 75.5697L54.2167 80.8288L52.6036 82.4419L44.6045 74.4428ZM63.9284 71.1172L62.1385 72.907L56.9125 62.1347L59.0449 60.0023L69.8062 65.2393L68.0274 67.0182L65.5801 65.7752L62.6854 68.6699L63.9284 71.1172ZM61.8126 66.9574L63.8676 64.9024L59.8073 62.8418L59.752 62.8971L61.8126 66.9574ZM62.7904 58.9969L61.4203 57.6269L67.9721 51.0751L69.3422 52.4451L66.8894 54.8979L73.5185 61.527L71.8723 63.1733L65.2431 56.5441L62.7904 58.9969ZM70.6569 48.3903L78.6561 56.3895L76.9988 58.0467L68.9996 50.0476L70.6569 48.3903ZM83.3296 43.7168C85.9426 46.3298 85.8211 49.4455 83.7053 51.5612C81.5729 53.6936 78.4517 53.7986 75.8497 51.1966C73.2368 48.5837 73.3528 45.4735 75.4851 43.3411C77.6009 41.2253 80.7166 41.1038 83.3296 43.7168ZM77.5402 49.5062C79.2472 51.2132 80.9873 51.3292 82.2358 50.0918C83.4622 48.8544 83.3517 47.1087 81.6392 45.4072C79.9322 43.6892 78.192 43.5842 76.9546 44.8106C75.7172 46.0591 75.8276 47.7937 77.5402 49.5062ZM87.1966 31.8506L95.1957 39.8498L93.7594 41.2861L85.1637 39.7172L85.0974 39.7835L90.1797 44.8658L88.5224 46.5231L80.5233 38.524L81.9817 37.0656L90.5554 38.6565L90.6327 38.5792L85.5504 33.4969L87.1966 31.8506Z" fill="black"/>
</svg>
