<svg width="1920" height="751" viewBox="0 0 1920 751" fill="none" xmlns="http://www.w3.org/2000/svg">
<g opacity="0.3">
<line x1="35.4995" y1="1" x2="35.4994" y2="751" stroke="white"/>
<line x1="85.4995" y1="1" x2="85.4995" y2="751" stroke="white"/>
<line x1="135.5" y1="1" x2="135.5" y2="751" stroke="white"/>
<line x1="185.5" y1="1" x2="185.5" y2="751" stroke="white"/>
<line x1="235.5" y1="1" x2="235.5" y2="751" stroke="white"/>
<line x1="285.5" y1="1" x2="285.5" y2="751" stroke="white"/>
<line x1="335.5" y1="1" x2="335.5" y2="751" stroke="white"/>
<line x1="385.5" y1="1" x2="385.5" y2="751" stroke="white"/>
<line x1="435.5" y1="1" x2="435.5" y2="751" stroke="white"/>
<line x1="485.5" y1="1" x2="485.5" y2="751" stroke="white"/>
<line x1="535.5" y1="1" x2="535.5" y2="751" stroke="white"/>
<line x1="585.5" y1="1" x2="585.5" y2="751" stroke="white"/>
<line x1="635.5" y1="1" x2="635.5" y2="751" stroke="white"/>
<line x1="685.5" y1="1" x2="685.5" y2="751" stroke="white"/>
<line x1="735.5" y1="1" x2="735.5" y2="751" stroke="white"/>
<line x1="785.5" y1="1" x2="785.5" y2="751" stroke="white"/>
<line x1="835.5" y1="1" x2="835.5" y2="751" stroke="white"/>
<line x1="885.5" y1="1" x2="885.5" y2="751" stroke="white"/>
<line x1="935.5" y1="1" x2="935.5" y2="751" stroke="white"/>
<line x1="985.5" y1="1" x2="985.5" y2="751" stroke="white"/>
<line x1="1035.5" y1="1" x2="1035.5" y2="751" stroke="white"/>
<line x1="1085.5" y1="1" x2="1085.5" y2="751" stroke="white"/>
<line x1="1135.5" y1="1" x2="1135.5" y2="751" stroke="white"/>
<line x1="1185.5" y1="1" x2="1185.5" y2="751" stroke="white"/>
<line x1="1235.5" y1="1" x2="1235.5" y2="751" stroke="white"/>
<line x1="1285.5" y1="1" x2="1285.5" y2="751" stroke="white"/>
<line x1="1335.5" y1="1" x2="1335.5" y2="751" stroke="white"/>
<line x1="1385.5" y1="1" x2="1385.5" y2="751" stroke="white"/>
<line x1="1435.5" y1="1" x2="1435.5" y2="751" stroke="white"/>
<line x1="1485.5" y1="1" x2="1485.5" y2="751" stroke="white"/>
<line x1="1535.5" y1="1" x2="1535.5" y2="751" stroke="white"/>
<line x1="1585.5" y1="1" x2="1585.5" y2="751" stroke="white"/>
<line x1="1635.5" y1="1" x2="1635.5" y2="751" stroke="white"/>
<line x1="1685.5" y1="1" x2="1685.5" y2="751" stroke="white"/>
<line x1="1735.5" y1="1" x2="1735.5" y2="751" stroke="white"/>
<line x1="1785.5" y1="1" x2="1785.5" y2="751" stroke="white"/>
<line x1="1835.5" y1="1" x2="1835.5" y2="751" stroke="white"/>
<line x1="1885.5" y1="1" x2="1885.5" y2="751" stroke="white"/>
<line y1="0.5" x2="1920" y2="0.5" stroke="white"/>
<line y1="50.5" x2="1920" y2="50.5" stroke="white"/>
<line y1="100.5" x2="1920" y2="100.5" stroke="white"/>
<line y1="150.5" x2="1920" y2="150.5" stroke="white"/>
<line y1="200.5" x2="1920" y2="200.5" stroke="white"/>
<line y1="250.5" x2="1920" y2="250.5" stroke="white"/>
<line y1="300.5" x2="1920" y2="300.5" stroke="white"/>
<line y1="350.5" x2="1920" y2="350.5" stroke="white"/>
<line y1="400.5" x2="1920" y2="400.5" stroke="white"/>
<line y1="450.5" x2="1920" y2="450.5" stroke="white"/>
<line y1="500.5" x2="1920" y2="500.5" stroke="white"/>
<line y1="550.5" x2="1920" y2="550.5" stroke="white"/>
<line y1="600.5" x2="1920" y2="600.5" stroke="white"/>
<line y1="650.5" x2="1920" y2="650.5" stroke="white"/>
<line y1="700.5" x2="1920" y2="700.5" stroke="white"/>
</g>
</svg>
