<svg width="80" height="88" viewBox="0 0 80 88" fill="none" xmlns="http://www.w3.org/2000/svg">
<g id="type_s">
<path id="S" d="M56.6187 24.8423C55.8569 17.5181 49.7046 13.2993 40.564 13.3579C30.896 13.2993 25.1538 17.9868 25.0952 24.3735C25.0366 31.522 32.5952 34.4517 39.6265 36.0923L47.5952 38.2017C60.2515 41.1313 72.439 47.811 72.439 62.5767C72.439 77.4595 60.6616 87.6548 40.3296 87.6548C20.5835 87.6548 8.04443 78.1626 7.3999 61.4048H22.3999C23.103 70.2524 30.5444 74.5884 40.2124 74.647C50.2319 74.5884 57.146 69.7251 57.2046 62.4595C57.146 55.7798 51.0522 52.9673 41.853 50.6235L32.2437 48.1626C18.2983 44.5298 9.62646 37.4985 9.62646 25.311C9.62646 10.311 22.9272 0.350098 40.7983 0.350098C58.7866 0.350098 71.0327 10.4868 71.2671 24.8423H56.6187Z" fill="black"/>
</g>
</svg>
